<?xml version="1.0" standalone="no"?>
<!DOCTYPE svg PUBLIC "-//W3C//DTD SVG 20010904//EN"
 "http://www.w3.org/TR/2001/REC-SVG-20010904/DTD/svg10.dtd">
<svg version="1.0" xmlns="http://www.w3.org/2000/svg"
 width="512.000000pt" height="512.000000pt" viewBox="0 0 512.000000 512.000000"
 preserveAspectRatio="xMidYMid meet">

<g transform="translate(0.000000,512.000000) scale(0.100000,-0.100000)"
fill="#000000" stroke="none">
<path d="M3855 4898 c-41 -36 -37 -75 18 -148 26 -34 54 -85 62 -113 22 -73
19 -175 -6 -243 -24 -63 -11 -61 -144 -23 -113 31 -324 32 -440 0 -152 -41
-295 -123 -402 -231 l-52 -53 -103 22 c-116 24 -346 45 -395 36 -18 -3 -33 -2
-33 2 0 4 -9 102 -19 216 -17 189 -21 211 -42 233 -30 32 -78 32 -109 -1 -27
-29 -27 -48 -5 -292 8 -87 15 -161 15 -165 0 -3 -33 -12 -72 -18 -177 -30
-396 -109 -565 -205 -88 -49 -227 -148 -281 -198 l-32 -31 -153 152 c-142 141
-156 152 -190 152 -49 0 -77 -28 -77 -77 0 -34 11 -48 151 -189 l151 -152 -54
-64 c-187 -220 -329 -529 -379 -820 l-11 -68 -52 5 c-228 24 -361 32 -382 25
-57 -22 -68 -104 -19 -136 15 -10 79 -20 191 -29 93 -8 187 -17 209 -20 l40
-6 3 -124 c3 -140 28 -305 67 -440 37 -126 113 -302 138 -320 35 -24 74 -17
147 25 38 22 72 40 77 40 4 0 20 -22 34 -48 83 -151 272 -347 441 -458 57 -37
104 -68 105 -69 2 -1 -17 -37 -42 -81 -63 -111 -60 -136 27 -180 205 -104 501
-173 739 -174 l96 0 17 -208 c12 -135 23 -215 32 -229 27 -43 95 -44 127 -1
20 26 20 29 3 220 -9 106 -16 202 -16 213 0 18 12 23 98 38 264 48 547 180
768 359 l82 66 138 -140 c140 -140 175 -168 214 -168 32 0 70 44 70 81 0 29
-19 52 -154 188 l-155 156 45 50 c185 209 339 537 389 830 11 65 13 70 36 68
376 -35 401 -36 428 -15 21 15 26 27 26 62 0 71 -15 77 -257 97 l-208 17 0
103 c0 109 -21 283 -45 373 l-14 54 62 66 c107 111 177 232 219 377 20 67 23
100 22 238 -1 162 -1 165 -51 318 -4 13 6 22 43 39 39 18 67 23 139 23 77 0
98 -4 148 -27 32 -15 77 -43 99 -63 71 -61 148 -36 148 47 0 30 -7 43 -45 76
-92 81 -226 132 -346 132 -75 0 -174 -22 -229 -50 l-39 -20 -34 48 c-37 49
-142 153 -191 188 l-29 21 28 69 c34 82 45 222 25 313 -17 80 -66 175 -120
232 -53 56 -83 62 -125 27z m-147 -674 c95 -19 217 -76 298 -137 266 -202 352
-588 199 -893 -32 -63 -105 -165 -124 -172 -4 -1 -22 33 -39 77 -37 90 -139
264 -204 348 -176 229 -389 401 -651 528 l-128 62 53 43 c70 57 216 126 303
144 94 19 199 19 293 0z m-1120 -244 c630 -67 1161 -487 1358 -1075 67 -201
78 -275 78 -515 0 -185 -3 -229 -22 -316 -140 -644 -617 -1118 -1262 -1255
-156 -34 -447 -34 -610 -1 -147 30 -325 93 -324 114 1 8 223 397 494 864 324
558 493 858 493 877 0 36 -39 77 -74 77 -18 0 -324 -172 -889 -500 -474 -275
-863 -500 -864 -500 -8 0 -86 251 -100 320 -70 344 -19 725 140 1041 126 252
361 503 611 653 286 171 642 251 971 216z m-455 -2154 c-197 -339 -363 -616
-369 -616 -16 0 -145 88 -220 150 -36 30 -96 91 -134 135 -78 92 -165 223
-155 233 10 10 1229 719 1233 717 1 -1 -158 -280 -355 -619z"/>
<path d="M2050 3654 c-192 -70 -273 -277 -179 -455 37 -70 72 -102 149 -138
79 -37 193 -36 266 1 75 39 107 70 145 140 31 58 34 70 33 148 0 100 -24 160
-89 225 -82 82 -222 116 -325 79z m163 -158 c104 -43 129 -180 46 -258 -68
-65 -153 -64 -219 2 -124 124 11 324 173 256z"/>
<path d="M3040 3414 c-68 -31 -124 -84 -158 -149 -23 -43 -27 -62 -27 -140 0
-78 4 -97 27 -140 30 -59 103 -130 154 -151 205 -86 424 40 450 257 17 144
-88 301 -226 339 -67 19 -160 12 -220 -16z m199 -149 c68 -35 104 -119 82
-188 -45 -134 -235 -149 -295 -23 -35 73 -3 175 66 209 41 21 110 22 147 2z"/>
<path d="M1307 2916 c-218 -78 -282 -361 -118 -525 70 -70 111 -86 226 -86
117 0 158 16 231 91 151 156 91 438 -111 513 -65 24 -170 27 -228 7z m191
-166 c47 -29 72 -76 72 -135 0 -93 -62 -155 -155 -155 -93 0 -155 62 -155 155
0 93 62 155 155 155 32 0 62 -7 83 -20z"/>
<path d="M3339 2420 c-209 -36 -325 -272 -227 -463 93 -184 360 -225 508 -77
64 64 85 121 85 230 0 73 -4 103 -19 130 -71 133 -207 204 -347 180z m136
-179 c48 -27 75 -76 75 -135 0 -94 -62 -156 -156 -156 -89 0 -156 66 -156 154
0 126 127 199 237 137z"/>
<path d="M2564 1676 c-228 -74 -298 -363 -130 -531 64 -64 126 -89 221 -89 66
-1 90 3 136 25 118 55 184 160 184 289 -1 125 -58 222 -166 280 -51 27 -77 34
-133 37 -42 1 -88 -3 -112 -11z m160 -160 c78 -33 116 -137 77 -213 -53 -105
-185 -124 -260 -38 -112 128 26 317 183 251z"/>
</g>
</svg>
