<?xml version="1.0" standalone="no"?>
<!DOCTYPE svg PUBLIC "-//W3C//DTD SVG 20010904//EN"
 "http://www.w3.org/TR/2001/REC-SVG-20010904/DTD/svg10.dtd">
<svg version="1.0" xmlns="http://www.w3.org/2000/svg"
 width="512.000000pt" height="512.000000pt" viewBox="0 0 512.000000 512.000000"
 preserveAspectRatio="xMidYMid meet">

<g transform="translate(0.000000,512.000000) scale(0.100000,-0.100000)"
fill="#000000" stroke="none">
<path d="M3573 5092 c-177 -63 -258 -255 -183 -430 29 -67 112 -144 179 -167
48 -16 50 -18 45 -48 -31 -182 -68 -284 -147 -403 l-20 -31 -61 16 c-89 22
-301 20 -389 -3 -165 -44 -301 -122 -414 -238 -120 -124 -195 -262 -227 -420
-20 -96 -20 -273 -1 -353 20 -85 19 -89 -25 -119 l-40 -26 -35 47 c-110 151
-175 381 -175 618 0 55 11 199 25 320 28 247 31 375 11 485 -43 239 -189 436
-393 533 -64 30 -75 32 -178 32 -109 0 -113 -1 -190 -39 -101 -50 -195 -142
-248 -244 -158 -302 -114 -825 108 -1277 118 -241 269 -448 493 -677 l134
-137 -33 -29 c-19 -16 -56 -48 -83 -70 l-49 -41 -56 36 c-76 47 -192 163 -247
245 -62 93 -134 248 -195 423 -98 283 -145 371 -254 481 -132 133 -295 200
-465 192 -139 -7 -234 -62 -312 -182 -139 -216 -98 -517 115 -836 209 -315
483 -537 868 -705 l118 -52 -55 -54 c-123 -120 -177 -188 -176 -222 1 -39 32
-67 75 -67 28 0 51 20 178 153 244 254 555 534 789 711 151 115 370 269 375
264 3 -2 22 -31 43 -64 58 -88 118 -151 203 -213 42 -31 84 -61 94 -67 17 -9
14 -17 -35 -90 -342 -510 -994 -1194 -1602 -1681 -114 -91 -170 -142 -174
-159 -15 -58 49 -108 103 -81 84 44 474 374 749 634 l191 181 13 -36 c27 -76
129 -281 184 -371 117 -188 260 -352 411 -473 376 -299 734 -380 981 -220 120
78 175 173 182 312 10 205 -99 414 -284 546 -82 58 -173 100 -374 169 -189 65
-342 135 -438 199 -82 55 -198 171 -245 247 l-36 56 41 49 c22 27 54 64 70 82
l29 34 142 -139 c236 -230 417 -362 659 -483 367 -182 807 -253 1108 -180 201
49 348 158 426 314 33 68 38 89 42 164 5 104 -11 169 -66 261 -99 169 -292
299 -502 337 -109 19 -226 17 -480 -11 -249 -27 -360 -30 -495 -14 -165 20
-334 82 -447 165 l-47 34 21 36 c11 20 27 38 34 41 7 3 45 -2 83 -11 90 -21
259 -21 359 0 307 63 553 295 648 611 23 76 27 107 27 223 1 91 -4 155 -14
196 l-16 61 51 34 c92 60 226 107 383 133 30 5 32 3 48 -45 22 -67 99 -150
167 -180 80 -35 193 -34 270 4 65 32 121 90 151 156 31 67 30 187 -2 259 -32
72 -112 143 -186 167 -155 48 -319 -19 -387 -161 -20 -40 -25 -44 -67 -49
-123 -15 -259 -56 -372 -112 l-115 -58 -40 64 c-54 87 -164 199 -255 258 l-76
50 38 69 c71 126 111 251 133 414 6 43 10 47 62 74 103 54 164 158 164 280 0
87 -23 147 -81 210 -85 93 -222 129 -336 88z m195 -159 c15 -11 38 -35 50 -54
20 -29 23 -44 20 -94 -6 -102 -63 -155 -166 -155 -87 0 -153 62 -159 152 -7
104 71 182 175 175 32 -2 63 -12 80 -24z m-2109 -194 c151 -68 272 -234 308
-420 18 -96 13 -281 -12 -459 -22 -152 -30 -388 -16 -497 25 -199 90 -382 185
-517 l44 -64 -30 -22 c-16 -12 -31 -20 -32 -18 -1 1 -18 26 -38 53 -55 77
-145 238 -193 344 -88 197 -134 352 -194 656 -43 216 -82 343 -139 445 -47 86
-169 207 -247 245 -33 17 -62 31 -64 32 -2 2 4 21 14 44 26 57 113 141 176
172 70 34 172 37 238 6z m-413 -398 c28 -17 71 -52 96 -80 43 -48 118 -176
108 -183 -51 -38 -203 -153 -226 -172 l-32 -26 -5 23 c-32 130 -31 467 2 467
3 0 29 -13 57 -29z m294 -601 c18 -96 48 -229 67 -294 18 -66 32 -123 31 -126
-2 -4 -39 -35 -83 -68 l-80 -61 -17 22 c-56 72 -176 323 -212 444 l-15 53 67
59 c93 83 196 160 203 152 4 -3 21 -85 39 -181z m1850 132 c238 -69 416 -246
489 -485 55 -180 28 -398 -71 -565 -48 -82 -171 -202 -251 -247 -124 -68 -204
-89 -352 -89 -94 -1 -148 4 -194 17 -195 53 -355 183 -445 363 -56 112 -71
181 -70 329 0 112 4 141 26 207 86 258 295 440 560 488 75 13 232 4 308 -18z
m1500 -64 c52 -36 73 -71 77 -130 5 -71 -25 -124 -87 -156 -82 -42 -164 -20
-218 59 -20 29 -23 44 -20 94 6 102 62 154 164 155 37 0 60 -6 84 -22z m-4248
-217 c123 -47 234 -156 302 -296 19 -38 62 -151 96 -250 102 -298 196 -469
334 -610 40 -39 97 -89 129 -110 54 -36 56 -39 41 -56 -9 -10 -22 -16 -28 -12
-209 120 -429 329 -631 598 -66 87 -142 182 -168 212 -109 118 -258 205 -385
223 -41 6 -78 7 -83 4 -6 -3 -16 -4 -23 -1 -19 8 -2 116 28 176 35 67 69 105
119 131 36 18 54 21 127 17 55 -3 105 -12 142 -26z m1272 -835 c36 -55 66
-103 66 -107 0 -46 -131 71 -307 276 -52 61 -99 117 -104 126 -7 14 5 28 58
68 l66 51 78 -157 c42 -87 107 -203 143 -257z m-1494 352 c30 -15 72 -41 92
-58 l37 -31 -60 -119 c-33 -66 -61 -120 -63 -120 -11 0 -114 174 -142 239 -56
131 -57 124 18 119 43 -2 82 -13 118 -30z m355 -355 c58 -79 133 -172 166
-207 l60 -64 -43 -80 -43 -80 -86 59 c-92 63 -220 173 -264 226 -19 24 -25 39
-19 55 14 48 108 238 115 236 4 -2 55 -67 114 -145z m558 -557 c37 -26 67 -51
67 -56 0 -4 -6 -13 -14 -20 -12 -9 -34 -4 -108 26 -51 20 -123 52 -161 70
l-67 34 30 60 30 60 78 -63 c42 -34 107 -84 145 -111z m1642 -154 c145 -72
312 -111 515 -119 110 -4 174 0 350 22 261 33 451 32 560 -3 90 -29 182 -86
251 -155 121 -120 152 -253 88 -378 -34 -68 -102 -140 -160 -170 -21 -10 -42
-19 -46 -19 -4 0 -21 28 -37 63 -20 44 -51 84 -105 137 -129 128 -302 202
-601 256 -424 76 -689 183 -1033 415 -5 4 1 20 13 37 l22 30 62 -43 c33 -23
88 -56 121 -73z m-209 -138 c54 -36 170 -100 257 -143 l157 -78 -51 -66 c-40
-53 -54 -65 -68 -58 -9 5 -65 52 -126 104 -205 177 -322 307 -276 307 4 0 52
-29 107 -66z m639 -293 c33 -10 164 -40 290 -66 127 -26 233 -50 237 -53 7 -7
-171 -233 -203 -259 -29 -24 -317 94 -472 192 l-57 37 20 26 c11 15 39 53 62
85 23 31 47 57 52 57 6 0 38 -9 71 -19z m-1070 -118 c21 -32 71 -89 110 -129
141 -138 314 -233 609 -333 98 -34 207 -75 241 -91 194 -93 319 -255 333 -432
9 -126 -30 -200 -136 -256 -55 -29 -178 -58 -186 -43 -2 3 -4 33 -5 66 -3 110
-38 203 -122 316 -66 90 -128 145 -313 283 -240 179 -415 355 -550 555 -54 79
-56 84 -40 102 9 11 18 19 19 19 1 0 19 -26 40 -57z m1827 -85 c79 -42 152
-109 189 -172 48 -84 58 -80 -193 -73 -123 3 -233 9 -245 14 -21 8 -17 14 58
108 44 55 88 112 97 128 9 15 20 27 25 27 5 0 36 -14 69 -32z m-1956 -85 c27
-38 77 -103 111 -145 l63 -78 -60 -30 -60 -30 -34 67 c-18 38 -50 110 -70 161
-30 74 -35 96 -26 108 7 8 16 14 20 14 5 0 30 -30 56 -67z m353 -395 c36 -34
129 -109 206 -166 77 -56 141 -107 143 -111 3 -8 -198 -106 -240 -116 -22 -6
-36 4 -98 67 -69 69 -137 154 -207 258 l-31 45 77 42 c42 23 78 42 80 42 2 1
33 -27 70 -61z m558 -517 c18 -37 29 -76 31 -119 5 -75 12 -74 -119 -18 -66
29 -239 131 -239 142 0 2 53 31 118 63 l117 60 33 -36 c18 -20 45 -62 59 -92z"/>
<path d="M2839 3581 c-40 -40 -49 -54 -49 -84 0 -27 7 -41 26 -56 40 -31 60
-26 120 30 44 43 54 58 54 85 0 41 -32 74 -73 74 -22 0 -42 -12 -78 -49z"/>
<path d="M3063 3315 c-52 -36 -32 -154 38 -224 47 -47 129 -77 179 -66 85 19
76 145 -11 145 -20 0 -40 10 -60 29 -19 20 -29 40 -29 60 0 60 -67 91 -117 56z"/>
<path d="M3481 2926 c-56 -60 -61 -80 -30 -120 15 -19 29 -26 56 -26 30 0 44
9 84 49 37 36 49 56 49 78 0 41 -33 73 -74 73 -27 0 -42 -10 -85 -54z"/>
<path d="M819 1533 c-172 -181 -438 -526 -584 -759 -159 -254 -228 -422 -229
-566 -1 -80 1 -89 29 -129 45 -63 83 -79 188 -79 68 0 106 6 165 26 140 46
421 200 463 252 24 32 24 53 -2 86 -33 42 -67 35 -190 -40 -244 -146 -446
-216 -493 -168 -15 14 -17 28 -13 68 22 215 292 647 705 1128 49 57 94 114
101 126 24 45 -14 102 -69 102 -18 0 -40 -15 -71 -47z"/>
</g>
</svg>
